<svg width="52" height="51" viewBox="0 0 52 51" fill="none" xmlns="http://www.w3.org/2000/svg">
<rect x="0.9" y="0.4" width="50.2" height="50.2" rx="5.6" fill="#080D17" stroke="white" stroke-width="0.8"/>
<rect width="45" height="45" transform="translate(3.5 3)" fill="#080D17"/>
<path d="M26 6.75H19.4375C17.697 6.75 16.0278 7.4414 14.7971 8.67211C13.5664 9.90282 12.875 11.572 12.875 13.3125C12.875 15.053 13.5664 16.7222 14.7971 17.9529C16.0278 19.1836 17.697 19.875 19.4375 19.875M26 6.75V19.875M26 6.75H32.5625C33.4243 6.75 34.2777 6.91974 35.0739 7.24954C35.8701 7.57934 36.5935 8.06273 37.2029 8.67211C37.8123 9.2815 38.2957 10.0049 38.6255 10.8011C38.9553 11.5973 39.125 12.4507 39.125 13.3125C39.125 14.1743 38.9553 15.0277 38.6255 15.8239C38.2957 16.6201 37.8123 17.3435 37.2029 17.9529C36.5935 18.5623 35.8701 19.0457 35.0739 19.3755C34.2777 19.7053 33.4243 19.875 32.5625 19.875M26 19.875H19.4375M26 19.875H32.5625M26 19.875V33M19.4375 19.875C17.697 19.875 16.0278 20.5664 14.7971 21.7971C13.5664 23.0278 12.875 24.697 12.875 26.4375C12.875 28.178 13.5664 29.8472 14.7971 31.0779C16.0278 32.3086 17.697 33 19.4375 33M32.5625 19.875C31.7007 19.875 30.8473 20.0447 30.0511 20.3745C29.2549 20.7043 28.5315 21.1877 27.9221 21.7971C27.3127 22.4065 26.8293 23.1299 26.4995 23.9261C26.1697 24.7223 26 25.5757 26 26.4375C26 27.2993 26.1697 28.1527 26.4995 28.9489C26.8293 29.7451 27.3127 30.4685 27.9221 31.0779C28.5315 31.6873 29.2549 32.1707 30.0511 32.5005C30.8473 32.8303 31.7007 33 32.5625 33C33.4243 33 34.2777 32.8303 35.0739 32.5005C35.8701 32.1707 36.5935 31.6873 37.2029 31.0779C37.8123 30.4685 38.2957 29.7451 38.6255 28.9489C38.9553 28.1527 39.125 27.2993 39.125 26.4375C39.125 25.5757 38.9553 24.7223 38.6255 23.9261C38.2957 23.1299 37.8123 22.4065 37.2029 21.7971C36.5935 21.1877 35.8701 20.7043 35.0739 20.3745C34.2777 20.0447 33.4243 19.875 32.5625 19.875ZM19.4375 33C17.697 33 16.0278 33.6914 14.7971 34.9221C13.5664 36.1528 12.875 37.822 12.875 39.5625C12.875 41.303 13.5664 42.9722 14.7971 44.2029C16.0278 45.4336 17.697 46.125 19.4375 46.125C21.178 46.125 22.8472 45.4336 24.0779 44.2029C25.3086 42.9722 26 41.303 26 39.5625V33M19.4375 33H26" stroke="white" stroke-width="2" stroke-linecap="round" stroke-linejoin="round"/>
</svg>
