<svg width="50" height="50" viewBox="0 0 50 50" fill="none" xmlns="http://www.w3.org/2000/svg">
<circle cx="25" cy="25" r="24.5" fill="#080D17" stroke="white"/>
<path d="M19.5 40.6667C11.1667 43.1667 11.1667 36.5 7.83334 35.6667M31.1667 45.6667V39.2167C31.2292 38.4219 31.1218 37.623 30.8517 36.873C30.5816 36.123 30.1549 35.439 29.6 34.8667C34.8333 34.2833 40.3333 32.3 40.3333 23.2C40.3329 20.873 39.4378 18.6353 37.8333 16.95C38.5931 14.9142 38.5394 12.6639 37.6833 10.6667C37.6833 10.6667 35.7167 10.0833 31.1667 13.1333C27.3467 12.098 23.32 12.098 19.5 13.1333C14.95 10.0833 12.9833 10.6667 12.9833 10.6667C12.1273 12.6639 12.0736 14.9142 12.8333 16.95C11.2169 18.6478 10.3209 20.9058 10.3333 23.25C10.3333 32.2833 15.8333 34.2667 21.0667 34.9167C20.5183 35.4833 20.0954 36.159 19.8255 36.8999C19.5556 37.6407 19.4447 38.4301 19.5 39.2167V45.6667" stroke="white" stroke-width="2" stroke-linecap="round" stroke-linejoin="round"/>
</svg>
